<?xml version="1.0" encoding="UTF-8" standalone="no"?>
<svg width="553px" height="65px" viewBox="0 0 553 65" version="1.1" xmlns="http://www.w3.org/2000/svg" xmlns:xlink="http://www.w3.org/1999/xlink">
    <!-- Generator: Sketch 48.2 (47327) - http://www.bohemiancoding.com/sketch -->
    <title>powercoders-logo-CMYK</title>
    <desc>Created with Sketch.</desc>
    <defs></defs>
    <g id="Page-1" stroke="none" stroke-width="1" fill="none" fill-rule="evenodd">
        <g id="powercoders-logo-CMYK" transform="translate(0.000000, -6.000000)">
            <path d="M6.32,49.031 C6.275,47.872 6.164,46.846 5.985,45.952 C5.807,45.06 5.494,44.268 5.048,43.576 C4.602,42.885 4.011,42.249 3.274,41.668 C2.538,41.088 1.611,40.53 0.496,39.994 L0.496,36.915 C1.611,36.379 2.538,35.833 3.274,35.275 C4.011,34.717 4.602,34.081 5.048,33.367 C5.494,32.654 5.807,31.85 5.985,30.957 C6.164,30.065 6.275,29.039 6.32,27.878 L6.521,21.183 C6.61,18.908 6.878,16.866 7.324,15.058 C7.77,13.251 8.506,11.723 9.534,10.473 C10.56,9.224 11.932,8.264 13.65,7.594 C15.368,6.925 17.566,6.59 20.244,6.59 C20.69,6.59 21.125,6.59 21.55,6.59 C21.973,6.59 22.564,6.635 23.324,6.724 C23.726,8.555 23.926,10.094 23.926,11.343 C23.926,12.682 23.726,14.244 23.324,16.029 L21.248,16.029 C20.355,16.029 19.642,16.186 19.106,16.497 C18.571,16.81 18.169,17.29 17.901,17.937 C17.634,18.584 17.466,19.399 17.399,20.38 C17.332,21.362 17.299,22.545 17.299,23.928 C17.299,26.338 17.209,28.346 17.031,29.953 C16.852,31.559 16.584,32.898 16.228,33.97 C15.87,35.04 15.424,35.922 14.889,36.614 C14.353,37.306 13.728,37.919 13.015,38.454 C13.728,38.99 14.353,39.604 14.889,40.296 C15.424,40.988 15.87,41.88 16.228,42.973 C16.584,44.067 16.852,45.417 17.031,47.023 C17.209,48.63 17.299,50.639 17.299,53.048 C17.299,54.431 17.332,55.615 17.399,56.596 C17.466,57.578 17.634,58.393 17.901,59.04 C18.169,59.685 18.571,60.166 19.106,60.478 C19.642,60.791 20.355,60.947 21.248,60.947 L23.324,60.947 C23.726,62.776 23.926,64.339 23.926,65.634 C23.926,66.928 23.726,68.467 23.324,70.253 C22.564,70.342 21.973,70.387 21.55,70.387 C21.125,70.387 20.69,70.387 20.244,70.387 C17.566,70.387 15.368,70.052 13.65,69.382 C11.932,68.713 10.56,67.753 9.534,66.504 C8.506,65.254 7.77,63.725 7.324,61.918 C6.878,60.11 6.61,58.069 6.521,55.793 L6.32,49.031" id="Fill-1" fill="#B23149"></path>
            <path d="M531.987,60.947 C532.88,60.947 533.594,60.791 534.13,60.478 C534.665,60.166 535.066,59.685 535.335,59.04 C535.602,58.393 535.769,57.578 535.837,56.596 C535.903,55.615 535.937,54.431 535.937,53.048 C535.937,50.639 536.026,48.63 536.205,47.023 C536.383,45.417 536.65,44.067 537.008,42.973 C537.365,41.88 537.811,40.988 538.347,40.296 C538.883,39.604 539.507,38.99 540.222,38.454 C539.507,37.919 538.883,37.306 538.347,36.614 C537.811,35.922 537.365,35.04 537.008,33.97 C536.65,32.898 536.383,31.559 536.205,29.953 C536.026,28.346 535.937,26.338 535.937,23.928 C535.937,22.545 535.903,21.362 535.837,20.38 C535.769,19.399 535.602,18.584 535.335,17.937 C535.066,17.29 534.665,16.81 534.13,16.497 C533.594,16.186 532.88,16.029 531.987,16.029 L529.912,16.029 C529.511,14.244 529.31,12.682 529.31,11.343 C529.31,10.094 529.511,8.555 529.912,6.724 C530.671,6.635 531.262,6.59 531.686,6.59 C532.11,6.59 532.545,6.59 532.991,6.59 C535.669,6.59 537.867,6.925 539.586,7.594 C541.303,8.264 542.675,9.224 543.702,10.473 C544.728,11.723 545.465,13.251 545.911,15.058 C546.357,16.866 546.625,18.908 546.715,21.183 L546.916,27.878 C546.96,29.039 547.071,30.065 547.25,30.957 C547.428,31.85 547.741,32.654 548.187,33.367 C548.633,34.081 549.226,34.717 549.962,35.275 C550.698,35.833 551.624,36.379 552.739,36.915 L552.739,39.994 C551.624,40.53 550.698,41.088 549.962,41.668 C549.226,42.249 548.633,42.885 548.187,43.576 C547.741,44.268 547.428,45.06 547.25,45.952 C547.071,46.846 546.96,47.872 546.916,49.031 L546.715,55.793 C546.625,58.069 546.357,60.11 545.911,61.918 C545.465,63.725 544.728,65.254 543.702,66.504 C542.675,67.753 541.303,68.713 539.586,69.382 C537.867,70.052 535.669,70.387 532.991,70.387 C532.545,70.387 532.11,70.387 531.686,70.387 C531.262,70.387 530.671,70.342 529.912,70.253 C529.511,68.467 529.31,66.928 529.31,65.634 C529.31,64.339 529.511,62.776 529.912,60.947 L531.987,60.947" id="Fill-2" fill="#B23149"></path>
            <path d="M49.215,37.231 C49.438,37.321 49.818,37.388 50.353,37.432 C50.889,37.477 51.446,37.499 52.027,37.499 C53.945,37.499 55.508,36.941 56.713,35.826 C57.918,34.71 58.52,33.014 58.52,30.738 C58.52,29.399 58.33,28.272 57.951,27.357 C57.572,26.443 57.047,25.706 56.378,25.148 C55.708,24.591 54.927,24.201 54.035,23.976 C53.142,23.754 52.205,23.642 51.224,23.642 C50.956,23.642 50.643,23.642 50.286,23.642 C49.929,23.642 49.572,23.665 49.215,23.709 L49.215,37.231 Z M37.634,14.605 C38.66,14.471 40.233,14.282 42.354,14.035 C44.473,13.791 47.14,13.667 50.353,13.667 C52.718,13.667 55.106,13.891 57.516,14.337 C59.926,14.784 62.102,15.62 64.043,16.847 C65.984,18.075 67.558,19.804 68.763,22.035 C69.967,24.267 70.57,27.168 70.57,30.738 C70.57,33.907 70.09,36.54 69.131,38.637 C68.17,40.735 66.898,42.409 65.315,43.658 C63.73,44.908 61.923,45.8 59.893,46.336 C57.861,46.871 55.776,47.139 53.633,47.139 C52.785,47.139 51.926,47.105 51.056,47.038 C50.186,46.972 49.572,46.894 49.215,46.804 L49.215,62.401 C48.054,62.624 47.006,62.78 46.069,62.87 C45.132,62.959 44.262,63.004 43.458,63.004 C41.895,63.004 39.954,62.804 37.634,62.401 L37.634,14.605 Z" id="Fill-3" fill="#343534"></path>
            <path d="M96.61,53.164 C102.322,53.164 105.179,48.344 105.179,38.704 C105.179,28.975 102.344,24.11 96.677,24.11 C90.875,24.11 87.974,28.975 87.974,38.704 C87.974,43.569 88.677,47.195 90.083,49.582 C91.489,51.97 93.664,53.164 96.61,53.164 Z M96.61,63.406 C92.95,63.406 89.792,62.792 87.138,61.564 C84.482,60.338 82.294,58.619 80.577,56.41 C78.858,54.201 77.587,51.591 76.761,48.578 C75.935,45.565 75.523,42.275 75.523,38.704 C75.523,35.134 75.935,31.82 76.761,28.763 C77.587,25.706 78.858,23.062 80.577,20.83 C82.294,18.599 84.482,16.847 87.138,15.575 C89.792,14.304 92.95,13.667 96.61,13.667 C100.269,13.667 103.415,14.304 106.049,15.575 C108.682,16.847 110.857,18.599 112.576,20.83 C114.293,23.062 115.565,25.706 116.392,28.763 C117.217,31.82 117.63,35.134 117.63,38.704 C117.63,42.275 117.217,45.565 116.392,48.578 C115.565,51.591 114.293,54.201 112.576,56.41 C110.857,58.619 108.682,60.338 106.049,61.564 C103.415,62.792 100.269,63.406 96.61,63.406 Z" id="Fill-4" fill="#343534"></path>
            <path d="M120.575,14.672 C121.824,14.449 123.029,14.293 124.19,14.203 C125.35,14.114 126.376,14.069 127.27,14.069 C128.117,14.069 128.999,14.102 129.914,14.169 C130.828,14.236 131.866,14.382 133.027,14.605 L138.583,45.197 C139.698,40.288 140.814,35.167 141.93,29.834 C143.045,24.502 144.139,19.425 145.21,14.605 C146.014,14.471 146.906,14.348 147.888,14.236 C148.869,14.125 149.873,14.069 150.9,14.069 C151.792,14.069 152.707,14.125 153.645,14.236 C154.582,14.348 155.385,14.471 156.055,14.605 L163.017,45.532 L168.573,14.605 C169.733,14.382 170.715,14.236 171.519,14.169 C172.322,14.102 173.147,14.069 173.996,14.069 C174.888,14.069 175.825,14.102 176.807,14.169 C177.788,14.236 178.904,14.382 180.154,14.605 L168.64,62.401 C167.971,62.535 167.111,62.67 166.063,62.804 C165.014,62.937 163.864,63.004 162.615,63.004 C161.365,63.004 160.149,62.926 158.967,62.769 C157.784,62.613 156.992,62.491 156.59,62.401 L150.231,34.687 L143.47,62.401 C143.068,62.491 142.32,62.613 141.227,62.769 C140.133,62.926 138.961,63.004 137.712,63.004 C136.463,63.004 135.347,62.937 134.366,62.804 C133.383,62.67 132.558,62.535 131.889,62.401 L120.575,14.672" id="Fill-5" fill="#343534"></path>
            <path d="M184.372,14.471 L212.621,14.471 C212.799,15.453 212.933,16.368 213.023,17.215 C213.112,18.064 213.157,18.867 213.157,19.625 C213.157,21.098 212.978,22.862 212.621,24.914 L196.22,24.914 L196.22,32.277 L209.14,32.277 C209.542,34.242 209.743,35.982 209.743,37.499 C209.743,39.062 209.542,40.802 209.14,42.721 L196.22,42.721 L196.22,52.226 L213.023,52.226 C213.425,54.1 213.625,55.798 213.625,57.314 C213.625,58.966 213.425,60.728 213.023,62.602 L184.372,62.602 L184.372,14.471" id="Fill-6" fill="#343534"></path>
            <path d="M219.649,14.605 C221.835,14.382 223.855,14.169 225.707,13.969 C227.559,13.768 229.512,13.667 231.565,13.667 C234.019,13.667 236.474,13.902 238.929,14.37 C241.383,14.839 243.57,15.654 245.489,16.814 C247.408,17.975 248.97,19.558 250.175,21.567 C251.38,23.575 251.982,26.118 251.982,29.198 C251.982,30.849 251.792,32.334 251.414,33.65 C251.034,34.967 250.543,36.138 249.941,37.164 C249.338,38.191 248.669,39.084 247.933,39.842 C247.196,40.601 246.47,41.248 245.757,41.783 L256.2,62.401 C255.129,62.581 253.957,62.714 252.686,62.804 C251.414,62.892 250.264,62.937 249.238,62.937 C248.345,62.937 247.307,62.892 246.125,62.804 C244.942,62.714 243.904,62.581 243.012,62.401 L233.506,40.512 L234.109,40.177 C234.645,39.909 235.235,39.463 235.883,38.838 C236.529,38.213 237.132,37.466 237.69,36.595 C238.248,35.725 238.716,34.754 239.096,33.683 C239.475,32.612 239.665,31.497 239.665,30.336 C239.665,28.105 239.04,26.476 237.791,25.449 C236.541,24.423 235.001,23.91 233.172,23.91 C232.725,23.91 232.345,23.932 232.034,23.976 C231.721,24.021 231.52,24.067 231.431,24.11 L231.431,62.401 C229.065,62.804 227.124,63.004 225.607,63.004 C223.956,63.004 221.969,62.804 219.649,62.401 L219.649,14.605" id="Fill-7" fill="#343534"></path>
            <path d="M261.087,51.089 C262.113,50.954 263.095,50.844 264.033,50.754 C264.97,50.665 265.884,50.62 266.777,50.62 C267.669,50.62 268.584,50.665 269.522,50.754 C270.459,50.844 271.44,50.954 272.467,51.089 C272.645,52.115 272.779,53.097 272.869,54.034 C272.958,54.971 273.003,55.887 273.003,56.778 C273.003,57.672 272.958,58.586 272.869,59.523 C272.779,60.46 272.645,61.442 272.467,62.469 C271.44,62.646 270.459,62.78 269.522,62.87 C268.584,62.959 267.669,63.004 266.777,63.004 C265.884,63.004 264.97,62.959 264.033,62.87 C263.095,62.78 262.113,62.646 261.087,62.469 C260.908,61.442 260.774,60.46 260.686,59.523 C260.595,58.586 260.551,57.672 260.551,56.778 C260.551,55.887 260.595,54.971 260.686,54.034 C260.774,53.097 260.908,52.115 261.087,51.089" id="Fill-8" fill="#B23149"></path>
            <path d="M310.355,51.089 C311.828,54.302 312.81,57.604 313.302,60.996 C312.007,61.487 310.802,61.889 309.686,62.201 C308.57,62.514 307.499,62.747 306.473,62.903 C305.445,63.059 304.432,63.172 303.428,63.238 C302.424,63.306 301.386,63.339 300.314,63.339 C296.52,63.339 293.186,62.725 290.307,61.498 C287.428,60.271 285.018,58.564 283.076,56.377 C281.135,54.19 279.674,51.58 278.691,48.545 C277.71,45.51 277.219,42.208 277.219,38.637 C277.219,35.067 277.732,31.753 278.759,28.696 C279.785,25.639 281.27,22.995 283.211,20.764 C285.152,18.532 287.551,16.792 290.406,15.542 C293.262,14.293 296.498,13.667 300.113,13.667 C302.256,13.667 304.286,13.824 306.205,14.136 C308.124,14.449 310.266,15.073 312.632,16.011 C312.542,17.841 312.207,19.615 311.628,21.332 C311.047,23.051 310.444,24.557 309.82,25.851 C308.927,25.539 308.113,25.271 307.377,25.048 C306.641,24.825 305.937,24.646 305.268,24.512 C304.599,24.378 303.93,24.278 303.26,24.211 C302.59,24.144 301.876,24.11 301.117,24.11 C297.503,24.11 294.701,25.327 292.717,27.759 C290.73,30.192 289.737,33.817 289.737,38.637 C289.737,48.098 293.709,52.829 301.653,52.829 C303.081,52.829 304.432,52.695 305.703,52.428 C306.976,52.159 308.525,51.714 310.355,51.089" id="Fill-9" fill="#343534"></path>
            <path d="M335.727,53.164 C341.439,53.164 344.296,48.344 344.296,38.704 C344.296,28.975 341.461,24.11 335.794,24.11 C329.992,24.11 327.092,28.975 327.092,38.704 C327.092,43.569 327.794,47.195 329.2,49.582 C330.605,51.97 332.781,53.164 335.727,53.164 Z M335.727,63.406 C332.067,63.406 328.909,62.792 326.255,61.564 C323.599,60.338 321.412,58.619 319.694,56.41 C317.976,54.201 316.704,51.591 315.879,48.578 C315.053,45.565 314.641,42.275 314.641,38.704 C314.641,35.134 315.053,31.82 315.879,28.763 C316.704,25.706 317.976,23.062 319.694,20.83 C321.412,18.599 323.599,16.847 326.255,15.575 C328.909,14.304 332.067,13.667 335.727,13.667 C339.386,13.667 342.532,14.304 345.166,15.575 C347.799,16.847 349.975,18.599 351.692,20.83 C353.41,23.062 354.683,25.706 355.509,28.763 C356.334,31.82 356.747,35.134 356.747,38.704 C356.747,42.275 356.334,45.565 355.509,48.578 C354.683,51.591 353.41,54.201 351.692,56.41 C349.975,58.619 347.799,60.338 345.166,61.564 C342.532,62.792 339.386,63.406 335.727,63.406 Z" id="Fill-10" fill="#343534"></path>
            <path d="M375.357,52.895 C375.669,52.94 376.027,52.963 376.429,52.963 C376.83,52.963 377.254,52.963 377.7,52.963 C379.441,52.963 381.081,52.752 382.621,52.327 C384.16,51.903 385.488,51.155 386.603,50.084 C387.719,49.014 388.601,47.563 389.248,45.733 C389.895,43.903 390.219,41.56 390.219,38.704 C390.219,35.892 389.884,33.549 389.215,31.675 C388.545,29.801 387.663,28.317 386.57,27.223 C385.477,26.13 384.194,25.349 382.722,24.88 C381.248,24.411 379.709,24.178 378.103,24.178 C377.209,24.178 376.562,24.189 376.161,24.211 C375.759,24.234 375.491,24.244 375.357,24.244 L375.357,52.895 Z M363.509,14.605 C364.178,14.515 365.025,14.415 366.053,14.304 C367.079,14.193 368.194,14.092 369.399,14.002 C370.604,13.913 371.843,13.835 373.115,13.768 C374.387,13.701 375.625,13.667 376.83,13.667 C385.265,13.667 391.669,15.776 396.043,19.993 C400.416,24.211 402.603,30.493 402.603,38.838 C402.603,47.317 400.371,53.532 395.909,57.481 C391.445,61.431 384.841,63.406 376.094,63.406 C373.862,63.406 371.709,63.306 369.634,63.104 C367.559,62.903 365.517,62.67 363.509,62.401 L363.509,14.605 Z" id="Fill-11" fill="#343534"></path>
            <path d="M409.364,14.471 L437.614,14.471 C437.792,15.453 437.926,16.368 438.016,17.215 C438.104,18.064 438.149,18.867 438.149,19.625 C438.149,21.098 437.971,22.862 437.614,24.914 L421.213,24.914 L421.213,32.277 L434.133,32.277 C434.534,34.242 434.735,35.982 434.735,37.499 C434.735,39.062 434.534,40.802 434.133,42.721 L421.213,42.721 L421.213,52.226 L438.016,52.226 C438.417,54.1 438.618,55.798 438.618,57.314 C438.618,58.966 438.417,60.728 438.016,62.602 L409.364,62.602 L409.364,14.471" id="Fill-12" fill="#343534"></path>
            <path d="M444.643,14.605 C446.829,14.382 448.849,14.169 450.701,13.969 C452.552,13.768 454.505,13.667 456.559,13.667 C459.012,13.667 461.467,13.902 463.922,14.37 C466.376,14.839 468.562,15.654 470.482,16.814 C472.4,17.975 473.963,19.558 475.168,21.567 C476.373,23.575 476.976,26.118 476.976,29.198 C476.976,30.849 476.785,32.334 476.407,33.65 C476.027,34.967 475.536,36.138 474.934,37.164 C474.331,38.191 473.662,39.084 472.926,39.842 C472.189,40.601 471.464,41.248 470.75,41.783 L481.193,62.401 C480.122,62.581 478.95,62.714 477.679,62.804 C476.407,62.892 475.257,62.937 474.231,62.937 C473.338,62.937 472.3,62.892 471.118,62.804 C469.936,62.714 468.897,62.581 468.006,62.401 L458.5,40.512 L459.103,40.177 C459.638,39.909 460.228,39.463 460.876,38.838 C461.522,38.213 462.125,37.466 462.684,36.595 C463.241,35.725 463.71,34.754 464.089,33.683 C464.468,32.612 464.658,31.497 464.658,30.336 C464.658,28.105 464.033,26.476 462.784,25.449 C461.534,24.423 459.994,23.91 458.165,23.91 C457.719,23.91 457.339,23.932 457.027,23.976 C456.714,24.021 456.514,24.067 456.425,24.11 L456.425,62.401 C454.059,62.804 452.117,63.004 450.601,63.004 C448.949,63.004 446.963,62.804 444.643,62.401 L444.643,14.605" id="Fill-13" fill="#343534"></path>
            <path d="M495.853,42.185 C494.247,41.605 492.784,40.913 491.469,40.11 C490.151,39.306 489.025,38.359 488.088,37.264 C487.15,36.172 486.425,34.911 485.912,33.482 C485.398,32.055 485.143,30.381 485.143,28.462 C485.143,26.097 485.544,23.999 486.348,22.169 C487.15,20.34 488.277,18.788 489.728,17.516 C491.178,16.244 492.93,15.285 494.983,14.638 C497.035,13.992 499.334,13.667 501.878,13.667 C504.154,13.667 506.352,13.891 508.472,14.337 C510.591,14.784 512.856,15.431 515.267,16.278 C515.088,17.707 514.765,19.28 514.296,20.997 C513.827,22.716 513.235,24.334 512.522,25.851 C511.361,25.36 510,24.847 508.438,24.311 C506.876,23.776 504.935,23.508 502.614,23.508 C501.9,23.508 501.219,23.575 500.572,23.709 C499.925,23.843 499.345,24.055 498.832,24.345 C498.318,24.636 497.905,25.037 497.594,25.55 C497.281,26.063 497.125,26.699 497.125,27.457 C497.125,28.752 497.549,29.712 498.397,30.336 C499.244,30.962 500.248,31.497 501.409,31.943 L504.623,33.215 C506.497,33.974 508.182,34.744 509.677,35.524 C511.172,36.306 512.455,37.243 513.526,38.336 C514.598,39.43 515.423,40.745 516.003,42.285 C516.582,43.825 516.873,45.689 516.873,47.875 C516.873,50.241 516.46,52.372 515.635,54.268 C514.809,56.166 513.593,57.794 511.986,59.155 C510.38,60.516 508.405,61.564 506.062,62.302 C503.719,63.038 501.03,63.406 497.995,63.406 C495.228,63.406 492.784,63.181 490.665,62.736 C488.545,62.291 486.258,61.598 483.804,60.661 C483.981,59.099 484.294,57.437 484.741,55.674 C485.186,53.911 485.722,52.115 486.348,50.285 C490.453,52.07 494.022,52.963 497.059,52.963 C499.334,52.963 501.108,52.617 502.38,51.925 C503.652,51.233 504.288,50.04 504.288,48.344 C504.288,47.631 504.154,47.016 503.887,46.503 C503.618,45.99 503.261,45.556 502.815,45.197 C502.369,44.841 501.866,44.54 501.31,44.294 C500.751,44.049 500.182,43.814 499.603,43.591 L495.853,42.185" id="Fill-14" fill="#343534"></path>
        </g>
    </g>
</svg>